<?xml version="1.0" encoding="UTF-8" standalone="no"?>
<svg
   version="1.1"
   id="Layer_1"
   x="0px"
   y="0px"
   width="540"
   height="489.272"
   viewBox="0 0 540 489.272"
   enable-background="new 0 0 1024 720"
   xml:space="preserve"
   sodipodi:docname="mlrc-paper-background.svg"
   inkscape:version="1.3 (0e150ed, 2023-07-21)"
   xmlns:inkscape="http://www.inkscape.org/namespaces/inkscape"
   xmlns:sodipodi="http://sodipodi.sourceforge.net/DTD/sodipodi-0.dtd"
   xmlns="http://www.w3.org/2000/svg"
   xmlns:svg="http://www.w3.org/2000/svg"><defs
   id="defs17" /><sodipodi:namedview
   id="namedview17"
   pagecolor="#ffffff"
   bordercolor="#000000"
   borderopacity="0.25"
   inkscape:showpageshadow="2"
   inkscape:pageopacity="0.0"
   inkscape:pagecheckerboard="0"
   inkscape:deskcolor="#d1d1d1"
   inkscape:zoom="0.97753906"
   inkscape:cx="156.004"
   inkscape:cy="187.2048"
   inkscape:window-width="1920"
   inkscape:window-height="1016"
   inkscape:window-x="1000"
   inkscape:window-y="1107"
   inkscape:window-maximized="1"
   inkscape:current-layer="g17" />&#10;&#10;&#10;&#10;&#10;&#10;&#10;&#10;&#10;&#10;&#10;&#10;&#10;&#10;&#10;&#10;&#10;<g
   id="g17"
   transform="matrix(0.89775396,0,0,0.88905416,-178.99761,-36.042829)"><path
     fill="#000000"
     opacity="1"
     stroke="none"
     d="m 530.73683,61.401139 c 15.66223,12.991426 22.31787,29.27136 18.4989,48.963161 -3.20386,16.52018 -13.44373,28.26831 -28.76886,34.63111 -9.56821,3.97258 -13.09994,10.51008 -13.10941,20.0341 -0.01,9.66606 -0.0243,19.33226 0.026,28.99807 0.007,1.42409 -0.51441,3.01478 0.2612,3.77089 4.89465,-4.36364 9.9418,-8.52468 14.60037,-13.08288 11.776,-11.52229 23.33282,-23.26824 35.07416,-34.82631 3.75299,-3.69445 6.35888,-7.02377 5.73083,-13.24224 -1.18194,-11.70249 9.92493,-20.57143 22.27191,-18.41571 3.43579,0.59987 5.2768,-0.46251 7.3208,-2.60581 4.11854,-4.31871 7.83307,-7.9743 5.46546,-15.39583 -2.57086,-8.058949 4.30975,-17.436543 12.13055,-19.151303 9.06177,-1.98687 17.49475,3.025566 19.75836,11.744129 2.25684,8.692044 -2.42999,17.258844 -11.07092,20.237744 -0.15674,0.0541 -0.32172,0.19342 -0.46222,0.16987 -8.58459,-1.4384 -12.02893,5.4824 -16.74689,10.30863 -2.51165,2.56927 -3.19586,5.21148 -1.91583,8.97203 3.83875,11.27782 -4.86426,22.88661 -16.90045,23.07263 -1.33295,0.0206 -2.771,0.33295 -3.98248,-0.0511 -7.11859,-2.25641 -11.34174,1.77981 -15.8158,6.41093 -11.23016,11.62435 -22.7652,22.95555 -34.2489,34.33276 -4.23401,4.19476 -6.71045,9.03097 -6.51642,15.08935 0.13922,4.34639 -1.87805,7.83287 -5.05444,10.41436 -7.1005,5.77055 -9.77283,13.13316 -9.11994,22.08108 0.3024,4.14462 0.37375,8.35582 0.006,12.48854 -0.63049,7.09439 3.22461,11.4773 8.47516,15.59569 5.06287,-3.56915 8.43488,-8.54129 12.21497,-13.1122 0.99274,-1.20041 0.2605,-2.51489 0.0348,-3.81654 -2.3736,-13.68849 7.16614,-26.39227 23.21039,-23.20963 2.66003,0.52768 4.90802,-0.20085 6.69201,-2.34378 2.12879,-2.55706 4.08448,-5.33441 6.55982,-7.51059 4.75818,-4.18309 6.84936,-8.39103 4.7821,-15.18155 -2.23175,-7.3307 4.70459,-17.13026 12.29431,-19.45224 8.53321,-2.61064 17.46747,1.33628 21.58057,9.28879 2.09888,4.05817 1.95691,8.58629 2.79022,12.735 2.29193,0.47072 3.0965,-1.05775 4.09326,-2.0444 7.57996,-7.50302 15.02247,-15.14703 22.69373,-22.55464 2.86224,-2.76392 3.51715,-5.71303 2.77783,-9.46335 -3.41577,-17.32835 4.27246,-31.97694 20.84174,-37.77415 16.78937,-5.87424 37.19842,2.1055 42.08246,23.86459 4.40026,19.60373 -11.11872,36.9178 -30.99518,37.90752 -6.70557,0.33387 -13.13544,-2.10547 -18.77899,-5.87581 -2.91602,-1.94818 -5.11414,-1.57502 -7.48865,0.72764 -8.60742,8.34693 -17.24988,16.65827 -25.93775,24.92136 -2.02734,1.92821 -2.05627,3.54457 0.019,5.4082 1.7334,1.55654 3.36841,3.23219 4.95373,4.94158 1.99207,2.14788 4.13721,2.80598 7.14844,2.09915 6.7367,-1.58138 13.09601,-0.59204 17.62677,5.15197 4.75519,6.02854 6.22894,12.77997 2.73218,20.05993 -3.41748,7.11491 -9.24384,10.31369 -16.9516,9.84007 -4.35681,-0.2677 -7.45386,1.11253 -10.43689,4.37378 -7.97742,8.72143 -16.50897,16.93667 -24.46777,25.67427 -4.54377,4.98846 -10.02912,7.04867 -16.41877,6.89749 -4.21051,-0.0997 -7.33416,1.43411 -10.14007,4.36182 -10.25659,10.70166 -20.66883,21.25522 -30.85462,32.02331 -7.53192,7.96247 -7.33142,22.97428 0.22126,30.92322 6.53967,6.88278 13.25695,13.5993 19.69781,20.57214 2.55976,2.77118 4.48889,2.8031 6.87219,-0.0292 2.03498,-2.41837 4.58558,-4.43204 6.44275,-6.96582 7.27619,-9.92688 17.44538,-11.32013 28.55304,-9.94028 8.9245,1.10858 17.85254,-0.45691 26.78412,0.24768 2.32092,0.18314 4.34113,-1.44558 6.00452,-3.20746 5.83087,-6.17633 11.64587,-12.36914 17.57385,-18.45144 2.09558,-2.15012 2.64673,-4.48407 1.93939,-7.29236 -1.91919,-7.61872 0.43653,-13.99594 6.53388,-18.54987 6.53857,-4.88345 13.81604,-5.57959 20.99231,-1.11728 6.64703,4.1333 9.2511,10.63449 8.14636,18.00266 -0.59656,3.97919 0.71466,6.14398 3.10382,8.66659 4.44739,4.6959 8.68622,9.33359 16.1842,6.25467 1.42078,-0.5834 3.48859,-0.54992 4.92414,0.028 6.16522,2.4819 10.0946,-0.65674 13.83539,-4.86902 1.98797,-2.23853 4.18951,-4.29431 6.36682,-6.35632 3.82006,-3.61771 6.18908,-7.35154 4.54565,-13.20197 -1.14532,-4.07712 1.14282,-8.09234 3.51117,-11.61838 3.15631,-4.69891 3.22339,-8.26645 -0.78125,-11.97943 -5.36334,-4.97278 -10.9331,-9.68658 -15.71173,-15.28396 -2.09052,-2.4487 -5.08533,-3.27262 -8.53626,-3.22687 -14.4967,0.19226 -28.99725,0.11166 -43.49627,0.0794 -2.35681,-0.005 -4.72412,0.0364 -6.87049,0.98383 -7.92578,3.49823 -16.05255,6.31632 -24.57342,7.98657 -3.10352,0.60831 -5.30145,2.90348 -7.32221,5.03077 -8.48779,8.93496 -17.18591,17.6477 -26.25457,25.99093 -2.58722,2.38031 -3.73859,5.16022 -3.74854,8.81549 -0.0283,10.34125 -9.16546,18.16153 -19.65149,17.17761 -10.19525,-0.95663 -17.40777,-10.25869 -15.80188,-20.37991 1.62976,-10.27164 11.65869,-16.93179 21.90033,-13.92004 4.62689,1.36065 7.50788,0.0673 10.56439,-3.10758 13.39728,-13.91604 26.92383,-27.7077 40.42548,-41.52293 1.39459,-1.427 2.724,-3.13072 4.44135,-3.99588 15.367,-7.74124 24.57843,-22.1957 36.7323,-33.42801 1.97125,-1.82181 2.40814,-3.80629 2.03088,-6.65581 -1.85614,-14.02176 8.08673,-23.07594 22.03571,-20.12968 2.91454,0.6156 4.82592,-0.13684 6.64868,-2.07965 2.73223,-2.91213 5.34252,-5.95063 8.21856,-8.7126 2.97925,-2.86113 6.41199,-3.76838 9.7096,-0.52019 3.12463,3.07791 2.01642,6.38354 -0.13684,9.47487 -0.7522,1.07985 -1.72626,2.05418 -2.75397,2.88501 -5.84125,4.72236 -9.04987,10.09913 -8.53253,18.31634 0.56518,8.97637 -10.32166,16.69446 -21.08106,15.63974 -3.93335,-0.38556 -6.59106,0.57997 -9.2135,3.20082 -6.4765,6.47263 -13.3623,12.54697 -19.07635,19.75182 -0.99817,1.25859 -2.51313,2.32408 -2.0542,4.35727 1.31292,1.84651 3.31817,1.1353 5.03912,1.14288 13.49896,0.0595 27.00311,-0.17595 40.49494,0.13875 5.10846,0.11916 7.32116,-1.54672 8.49023,-6.60764 3.20129,-13.859 11.87714,-22.78991 25.88287,-26.0318 15.44232,-3.57443 32.55518,5.04293 38.60956,19.80312 5.83008,14.21336 1.87085,30.63651 -12.63269,40.24204 -3.58282,2.37286 -8.47778,3.37313 -9.56921,8.76284 -0.50342,2.48606 -0.48462,4.32465 1.22485,6.41346 4.71039,5.75549 7.06152,12.24639 3.47302,19.40252 -3.5957,7.17066 -9.87799,10.10086 -17.73584,9.54169 -3.12323,-0.22223 -5.40814,0.8089 -7.48352,3.05469 -3.27844,3.54776 -6.52411,7.17807 -10.17883,10.31262 -4.53998,3.8938 -6.34009,8.34949 -6.05981,14.42056 0.4201,9.09854 -7.72907,16.67142 -17.32984,17.02402 -9.76837,0.35876 -19.65429,-7.42334 -18.88,-16.61044 0.79498,-9.4325 -5.86341,-13.03629 -10.88648,-18.22092 -1.17608,-1.2139 -2.73321,-0.7858 -4.25281,-0.55197 -2.12561,0.32705 -4.48834,1.04904 -6.40094,0.46341 -5.86212,-1.7948 -9.43402,1.21197 -12.89422,5.11371 -4.30561,4.85504 -9.45886,8.91208 -13.30817,14.2099 -4.20813,5.79171 -4.27869,8.93685 0.60315,14.09927 10.76135,11.37988 22.06561,22.21762 33.46076,32.96161 4.24151,3.99917 8.32342,8.17071 12.40631,12.33407 2.22308,2.26688 4.56958,2.98316 7.61139,1.64258 13.06219,-5.7565 28.07788,6.14447 25.93713,19.29691 -0.92529,5.6846 1.35828,9.41192 5.29224,12.97766 4.43957,4.02395 8.57464,8.38889 12.76245,12.68326 1.94397,1.99347 3.98724,2.4797 6.75464,1.84414 9.63031,-2.21176 18.57177,2.93186 20.14141,11.3469 1.74506,9.35565 -3.96905,17.36725 -13.70166,19.21072 -8.59234,1.62747 -17.80133,-5.63544 -17.75909,-14.39362 0.0178,-3.7008 -1.23059,-6.2984 -3.85461,-8.69735 -5.28455,-4.83139 -10.44318,-9.80258 -15.5846,-14.78742 -2.05267,-1.99017 -4.00055,-2.69867 -7.10352,-2.0802 -14.30377,2.85111 -25.44866,-6.44546 -25.43835,-21.06878 0.002,-3.15448 -1.13135,-5.32563 -3.2818,-7.4101 -13.75708,-13.33469 -27.46442,-26.72088 -41.1557,-40.1232 -2.88147,-2.82065 -6.10138,-4.34201 -10.27118,-4.11426 -6.88391,0.37607 -14.29523,-1.41653 -19.87024,4.30729 -6.76471,6.94519 -14.77923,13.24295 -13.00415,24.86273 0.9574,6.26712 3.39832,8.05862 9.28662,5.72134 10.51007,-4.17193 20.77283,-3.83243 29.7406,3.34104 9.46418,7.57049 14.24158,17.4494 11.38758,29.9425 -0.56836,2.48779 -0.008,4.56442 1.64666,6.47144 7.66559,8.83389 16.95856,15.99258 25.04725,24.38794 2.08026,2.15911 4.24829,1.07531 6.47094,0.38159 8.81018,-2.7497 16.18299,-0.25577 21.43549,7.21197 6.07574,8.63846 3.40375,19.75815 -6.18927,25.75748 -7.86755,4.92016 -19.67493,1.97195 -24.49091,-6.11032 -1.90863,-3.20304 -3.30975,-6.54825 -2.8612,-10.39136 0.31421,-2.69208 -0.63459,-4.63882 -2.69458,-6.52869 -7.60773,-6.97927 -15.05835,-14.13211 -22.4787,-21.31207 -2.75659,-2.6673 -5.10211,-3.07794 -8.75965,-1.02472 -20.94757,11.75955 -42.59484,3.01499 -48.43542,-19.33166 -1.15411,-4.41599 -0.90558,-8.93409 -0.15375,-13.37967 2.03162,-12.01328 0.59619,-22.78391 -9.5766,-31.15857 -4.22156,-3.47534 -7.9154,-7.63791 -11.57562,-11.73258 -2.39545,-2.67978 -4.23926,-2.55044 -6.5495,-0.0509 -8.02087,8.6781 -16.07898,17.32272 -24.20825,25.89917 -2.39887,2.53079 -5.07208,4.80252 -7.63281,7.17868 -5.8686,5.44562 -6.00507,12.78741 -6.16126,19.89487 -0.2782,12.65573 -0.13202,25.32232 -0.0505,37.98364 0.0309,4.797 1.55115,9.15405 4.76392,12.82227 6.81018,7.77563 14.19531,14.99362 21.54749,22.24523 2.33703,2.30509 4.6325,2.92484 8.02545,1.79044 9.67193,-3.23386 18.57654,1.49579 21.75799,11.05823 3.06183,9.20263 -1.84655,19.12945 -11.19848,22.64831 -9.22998,3.4729 -19.11634,-0.69952 -22.76111,-9.67492 -0.48767,-1.20087 -1.00488,-2.62549 -0.80554,-3.8302 1.06512,-6.43811 -2.36097,-10.54328 -6.65039,-14.62995 -7.23578,-6.89377 -14.09076,-14.18576 -21.16687,-21.24917 -4.96445,-4.95551 -7.33182,-10.70035 -7.31934,-17.87857 0.12601,-72.49546 0.0585,-144.99121 0.11389,-217.48685 0.004,-4.58691 -0.7388,-8.95456 -2.51169,-13.12148 -1.05121,-2.47067 -2.5224,-5.20585 -5.53531,-5.13205 -2.97073,0.0728 -4.41327,2.79056 -5.39868,5.30636 -1.52963,3.90525 -1.93292,8.01498 -1.93078,12.2156 0.036,70.82907 -0.22593,141.65997 0.27102,212.48557 0.0874,12.46246 -4.65338,21.21737 -13.30093,29.08102 -6.52704,5.93533 -12.59897,12.3685 -18.96301,18.48697 -2.52445,2.42706 -3.34623,5.32947 -2.95023,8.62146 1.06574,8.86047 -5.12161,16.15875 -15.14136,17.84937 -8.5498,1.44256 -17.4671,-4.32807 -19.24936,-12.99622 -1.90677,-9.27393 0.8552,-17.50238 10.15784,-21.41913 4.00476,-1.68616 8.13294,-1.44974 12.22015,-0.27631 1.9852,0.56995 3.87543,1.08491 5.58176,-0.62704 7.87094,-7.89703 16.09729,-15.45038 23.30985,-23.98444 3.28244,-3.88384 4.29217,-8.59576 4.37002,-13.492 0.24106,-15.15893 -0.0253,-30.31033 -0.73251,-45.45898 -0.2305,-4.93674 -2.87494,-8.52909 -5.9552,-11.75394 -10.70148,-11.20383 -21.60938,-22.21057 -32.44635,-33.28482 -1.49726,-1.53 -2.92828,-1.92926 -4.65317,-0.10037 -5.37051,5.69433 -10.9917,11.1578 -16.24252,16.9581 -7.21341,7.96813 -7.16898,17.42703 -5.14157,27.26803 2.70108,13.11127 -2.02811,23.62342 -12.24036,31.61096 -9.88269,7.7298 -20.82782,7.7714 -31.96664,2.78278 -10.17429,-4.5567 -10.10563,-4.57941 -18.24231,3.40607 -5.58332,5.47961 -11.29203,10.83163 -16.95639,16.22839 -2.09321,1.99426 -3.21045,4.05539 -3.36179,7.29449 -0.35339,7.56653 -3.66022,13.75623 -11.0672,16.96842 -6.74573,2.92535 -13.10196,1.84738 -18.7428,-2.54263 -6.96295,-5.41904 -8.43716,-14.73121 -4.03653,-23.05265 3.79715,-7.18027 13.85251,-11.24023 22.01004,-8.29422 3.53925,1.27814 5.95108,0.84812 8.47129,-1.69082 7.51294,-7.56888 15.08136,-15.08356 22.6968,-22.54926 2.2255,-2.18173 2.86542,-4.3453 2.14618,-7.57297 -2.91763,-13.09402 5.31974,-27.75534 17.97449,-32.74023 7.88358,-3.10547 15.66788,-3.84171 23.68204,-0.19602 5.11129,2.32517 8.31241,0.11979 8.83062,-5.47061 0.46598,-5.02603 -0.59167,-9.59292 -3.92544,-13.51065 -1.61728,-1.90066 -3.38644,-3.69958 -4.7955,-5.74524 -7.3219,-10.62985 -18.15128,-10.3471 -29.16266,-9.48642 -2.68482,0.20984 -4.43692,2.13483 -6.20532,3.90598 -9.06671,9.08084 -18.08612,18.20938 -27.20136,27.24121 -3.89944,3.86374 -7.77929,7.74091 -11.95526,11.34131 -2.90927,2.50824 -5.04364,5.3147 -4.47818,10.22128 1.37607,11.94086 -11.38483,22.79062 -23.0061,19.66428 -4.94226,-1.32959 -8.38797,-0.27658 -11.66773,2.94833 -5.34707,5.25772 -10.56079,10.65186 -15.94613,15.86936 -1.76685,1.71176 -1.72834,3.75686 -2.08936,5.89682 -1.15579,6.8504 -4.67429,12.14627 -11.38423,14.57492 -6.08679,2.20309 -11.47136,0.45883 -15.85684,-4.17322 -4.95049,-5.22873 -5.59209,-11.95532 -1.9346,-18.4364 3.20315,-5.67591 10.115,-8.87967 16.59808,-7.25858 3.29893,0.82489 5.82619,0.23917 8.16821,-2.10705 5.17931,-5.18854 10.42882,-10.30683 15.62435,-15.47928 2.23666,-2.22678 2.8388,-4.66181 2.58746,-8.05075 -0.99744,-13.44852 8.32227,-24.61615 23.12448,-21.89771 6.83588,1.25537 10.98367,-0.22851 15.61084,-5.13867 12.79547,-13.57822 26.17255,-26.60855 39.32935,-39.84589 6.11523,-6.15271 6.19366,-9.20224 0.89941,-15.87286 -4.89291,-6.16489 -10.78452,-11.34146 -16.17065,-17.01563 -1.51737,-1.59851 -3.05335,-2.35641 -5.2902,-1.69891 -1.08178,0.31803 -2.45153,0.47693 -3.4602,0.0964 -10.29334,-3.8834 -14.41516,4.66906 -20.18118,9.89605 -1.52146,1.37925 -0.55155,3.15241 -0.62836,4.7468 -0.36655,7.60681 -2.89435,14.07968 -10.00848,17.76388 -7.09931,3.67658 -14.17017,3.30317 -20.63382,-1.53701 -5.52018,-4.13367 -7.9643,-9.91541 -6.62384,-16.67108 0.58789,-2.96302 -0.16501,-4.66816 -2.11072,-6.51981 -3.13751,-2.9859 -6.21845,-6.04233 -9.16153,-9.21884 -4.12283,-4.44983 -8.25574,-7.41526 -15.11368,-7.95182 -14.00537,-1.09579 -20.08781,-15.15298 -12.66017,-27.03454 4.34865,-6.95624 3.59456,-10.50162 -3.43633,-15.3454 -11.0816,-7.63449 -18.05856,-17.53195 -17.81599,-31.55986 0.27905,-16.13757 15.05649,-30.27568 31.16522,-31.29152 17.23485,-1.08685 32.55272,10.44751 35.96273,27.87647 0.73397,3.75129 2.76638,5.15739 5.99197,5.17822 14.83066,0.0958 29.66238,0.0382 44.49359,-0.006 0.5918,-0.002 1.18237,-0.42081 1.71863,-0.62459 0.48501,-2.56685 -1.12537,-3.93689 -2.48416,-5.31457 -6.78611,-6.8806 -13.66919,-13.6659 -20.42749,-20.5734 -1.67313,-1.7101 -3.30515,-2.09192 -5.72684,-1.85438 -12.09967,1.18693 -20.2457,-4.36048 -22.34299,-14.87076 -0.16171,-0.81046 -0.47833,-1.75531 -0.22485,-2.45804 2.96167,-8.21141 -2.74613,-12.21675 -7.93649,-16.42101 -1.70841,-1.38382 -3.26154,-2.79475 -4.23157,-4.81628 -1.46488,-3.0528 -1.23895,-5.84026 1.21905,-8.23904 2.5463,-2.48491 5.43195,-2.1101 8.28168,-0.61014 2.26508,1.19223 3.7168,3.23939 5.26245,5.22313 3.81363,4.89448 7.89746,8.01506 15.11527,6.472 10.23132,-2.1873 20.52523,9.43655 18.33929,19.98686 -0.59756,2.88418 -0.5643,5.33247 1.4379,7.4133 9.33963,9.70651 17.85034,20.40582 28.64822,28.43374 6.2186,4.62337 13.13272,8.21872 18.39066,14.18607 11.57119,13.13246 24.3508,25.10323 36.55325,37.62981 2.56342,2.63153 4.93414,3.1069 8.38068,1.96515 7.59964,-2.51764 14.72757,-0.24543 19.11029,5.5979 4.65909,6.21176 5.23593,14.22973 1.44909,20.14199 -4.36389,6.81318 -11.5429,9.91065 -19.39618,8.36866 -6.73257,-1.3219 -12.81402,-8.35138 -12.67782,-15.39157 0.0749,-3.86914 -1.24121,-6.53144 -3.94711,-9.14866 -9.34256,-9.03631 -18.49442,-18.27005 -27.70057,-27.44699 -3.00848,-2.99893 -6.40164,-5.05484 -10.66915,-6.02383 -5.65232,-1.28351 -11.31174,-2.66724 -16.68299,-5.00452 -5.09592,-2.2175 -10.42917,-2.99298 -16.04294,-2.89099 -12.66168,0.2301 -25.33181,0.16877 -37.99554,9.8e-4 -3.59729,-0.0476 -6.39117,0.82168 -8.82572,3.56784 -4.53231,5.11246 -9.54132,9.70172 -15.09176,13.76971 -5.25174,3.84909 -5.80733,8.54328 -1.81293,13.73905 3.33884,4.34302 4.10175,9.14313 3.00122,14.15271 -0.63757,2.90219 0.11133,4.69638 2.06311,6.58261 4.31333,4.16858 8.51886,8.44949 12.73538,12.71716 2.11805,2.14374 4.56842,3.73215 7.56961,2.52649 4.13492,-1.66107 8.17597,-1.26816 12.20621,-0.0892 3.69882,1.08209 6.51917,-0.0283 8.90399,-2.80377 1.84525,-2.14749 3.65445,-4.32651 5.52738,-6.44941 1.43786,-1.62975 2.00949,-3.45806 1.35419,-5.54348 -1.9556,-6.22357 1.9006,-15.33084 8.55011,-19.11164 5.97134,-3.3952 14.81124,-3.12069 20.31893,1.00992 5.84806,4.38587 8.33491,11.6532 6.31794,19.13141 -0.70499,2.61377 -0.47977,4.51364 1.41778,6.7478 5.83832,6.8739 12.25669,13.16339 18.60242,19.53788 1.99805,2.00711 4.19382,2.79583 7.11465,2.79489 8.15427,-0.003 16.33411,0.45547 24.43167,-0.63071 14.36173,-1.92651 25.13083,3.5755 33.5304,15.01602 4.35272,5.92859 4.92697,5.62085 9.96106,0.12338 5.84821,-6.38656 11.93964,-12.55053 17.93219,-18.80471 6.79337,-7.08997 7.6467,-20.54276 1.68826,-28.40882 -1.6015,-2.11419 -3.47302,-4.03436 -5.31149,-5.95666 -7.71191,-8.0636 -15.72537,-15.85858 -23.1011,-24.21719 -5.17392,-5.86338 -11.11243,-9.23264 -18.91181,-9.26203 -4.28949,-0.0162 -7.56866,-2.01172 -10.49875,-4.98111 -9.12988,-9.25244 -18.37411,-18.39223 -27.48105,-27.66704 -1.86889,-1.90336 -3.64343,-2.73886 -6.48965,-2.62301 -7.47806,0.30439 -13.79837,-2.64612 -17.84061,-9.03783 -3.89563,-6.15988 -3.38742,-12.6138 0.25965,-18.88719 3.1748,-5.46105 11.25756,-9.25453 17.53378,-8.11426 5.8605,1.06473 11.77005,-2.05315 14.21762,-7.31486 0.89572,-1.92557 0.16623,-3.1176 -1.1434,-4.36469 -8.67749,-8.26312 -17.31919,-16.56393 -26.00781,-24.81528 -2.36905,-2.24983 -4.42911,-2.69252 -7.80658,-0.70604 -21.39374,12.5828 -47.6008,-0.94963 -48.65281,-25.46774 -0.88925,-20.72587 21.18433,-39.47456 43.15708,-30.65146 15.81814,6.35173 23.8677,21.74953 19.91382,38.30953 -0.66745,2.79545 -0.99475,5.0762 1.3186,7.28453 8.55139,8.16316 17.0123,16.42109 25.5162,24.63408 0.71769,0.69307 1.49158,1.34126 2.83021,1.17685 1.97311,-2.499 0.79266,-5.69977 1.54489,-8.5345 2.6716,-10.06713 12.00195,-16.05536 21.91653,-13.94359 8.85416,1.88592 16.22916,13.91795 13.26468,22.03294 -0.62912,1.72205 -1.78986,3.75354 -0.466,5.75388 4.05297,6.1241 8.81298,11.65197 14.3197,16.5045 1.35434,1.19342 3.19824,0.78764 4.82751,0.51706 17.34619,-2.88094 24.23419,11.76915 21.80442,22.83827 -0.70929,3.23137 -0.16214,5.57597 2.09487,7.62729 3.66614,3.33208 6.04999,7.92889 10.53125,10.88969 5.19715,-4.91636 9.31113,-10.06558 9.11722,-17.58684 -0.1159,-4.49671 -0.10061,-9.0007 -10e-4,-13.49824 0.16937,-7.64989 -2.48508,-14.01959 -8.49415,-18.8073 -4.6079,-3.67132 -7.37286,-8.02968 -6.55065,-14.19822 0.58508,-4.38961 -1.71057,-7.79686 -4.57532,-10.64101 -13.70151,-13.60298 -27.55918,-27.04862 -41.27497,-40.63736 -2.37118,-2.34924 -4.71856,-3.21403 -7.99905,-2.17131 -13.20227,4.19634 -27.48392,-7.41386 -23.57562,-23.79919 0.75241,-3.15435 0.24518,-5.71113 -1.84332,-7.79906 -4.32767,-4.32649 -7.66538,-9.27053 -15.18842,-9.96848 -9.3165,-0.86432 -14.09613,-8.71404 -13.49399,-18.495193 0.48712,-7.913109 7.19275,-14.440262 15.79944,-15.378906 10.30911,-1.124317 20.49826,10.996979 17.11038,21.122599 -1.74749,5.22284 -1.03064,8.52848 3.08191,12.04301 3.4888,2.9815 6.24256,5.56767 11.64282,4.63762 12.59333,-2.16888 20.40586,9.81352 19.44117,19.61191 -0.45078,4.5781 0.95013,7.41293 3.83752,10.02494 15.21155,13.76067 29.21002,28.74988 43.80637,43.13228 2.58331,2.54543 4.75256,5.51103 7.35272,8.56404 1.44507,-1.93867 0.9574,-3.95065 0.96597,-5.77008 0.0471,-9.99893 -0.16006,-20.00079 0.006,-29.99689 0.14334,-8.63501 -3.50699,-14.5474 -11.39465,-18.11023 -13.03324,-5.88707 -22.32459,-15.49213 -27.47373,-28.87311 -11.60562,-30.159202 11.19956,-64.547205 43.65894,-64.728454 12.08237,-0.06746 23.04648,2.417537 33.22165,9.610773 m -9.27539,274.873071 c 2.34051,4.19113 3.5802,0.0704 4.42407,-0.91504 11.8045,-13.78515 25.34229,-25.90912 37.51178,-39.33654 5.08661,-5.61249 11.0788,-8.95447 18.98169,-7.69022 2.89142,0.46252 5.24548,-0.90248 7.13391,-2.88683 8.02991,-8.43798 15.9964,-16.93666 23.9502,-25.44667 0.99926,-1.06912 2.03076,-2.14119 2.00586,-3.86198 -0.20624,-14.22504 -0.18982,-14.22505 -10.73157,-25.18326 -0.46185,-0.48013 -0.93353,-0.95318 -1.36444,-1.46031 -3.60041,-4.23744 -7.43659,-7.52689 -13.67633,-5.18419 -1.55268,0.58295 -3.6499,0.0861 -5.39911,-0.32747 -1.80853,-0.42763 -3.49774,-0.27138 -4.68128,0.92766 -4.78045,4.8432 -9.61193,9.66396 -13.487,15.30391 -1.22888,1.78857 -0.82605,3.83232 -0.46881,5.80711 2.32556,12.85521 -6.01977,24.02843 -18.61651,22.67761 -7.18836,-0.77081 -11.10797,1.71543 -15.04804,6.39641 -0.74829,0.88909 -1.58404,1.71949 -2.46173,2.48221 -6.08966,5.29196 -8.35052,12.04666 -8.22821,19.98496 0.19501,12.65649 0.0746,25.31781 0.15552,38.71264 m -89.96808,-45.4389 c 2.41916,1.51935 4.41748,3.50125 6.35056,5.58743 11.98706,12.93646 23.98873,25.85956 36.04925,38.72742 1.03702,1.10647 1.77869,2.88656 3.80106,2.74161 1.4833,-1.60617 0.96298,-3.53794 0.92889,-5.29309 -0.2518,-12.97367 -0.96176,-25.95105 -0.77313,-38.91626 0.1272,-8.74169 -5.99771,-13.35534 -10.74924,-18.9199 -3.7688,-4.41365 -8.37146,-6.66398 -14.76706,-6.34536 -11.92071,0.59388 -20.41958,-8.78842 -18.3573,-20.54056 1.03436,-5.8943 -0.98602,-9.5249 -4.55765,-13.19414 -2.55575,-2.62559 -5.1636,-5.20097 -7.77246,-7.77417 -1.06103,-1.04652 -2.12039,-2.01349 -3.72958,-2.32919 -13.91641,-2.73007 -13.91232,-2.75076 -24.05374,7.77959 -0.23108,0.23994 -0.46536,0.47685 -0.69562,0.71762 -4.50204,4.70788 -8.96121,9.36918 -6.91611,16.85446 0.41068,1.50306 0.13874,3.40953 -0.41351,4.91115 -0.98172,2.66929 0.0508,4.45036 1.78433,6.23938 7.87326,8.12545 15.7313,16.26588 23.55637,24.43779 2.33429,2.43774 5.04284,3.50473 8.46362,3.45809 3.76767,-0.0513 7.7027,-0.83674 11.85132,1.85813 m 95.10046,141.48138 c 7.73865,-8.00061 15.35401,-16.12625 23.27832,-23.93847 3.04706,-3.00397 2.56488,-4.92261 -0.18151,-7.72452 -8.1225,-8.28659 -15.98487,-16.82785 -23.98462,-25.23557 -0.85022,-0.89355 -1.65863,-2.14532 -3.8133,-1.45242 0,20.82391 0,41.78467 0,62.8736 2.15241,-0.6525 2.78784,-2.77155 4.70111,-4.52262 m -65.47573,-13.65445 c 5.40246,5.90476 10.8049,11.80951 16.6134,18.15812 1.92547,-8.59464 1.18967,-59.5911 -1.09158,-63.41407 -9.42539,9.8002 -19.36319,18.78873 -28.055,29.03171 -1.5296,1.80258 -0.28622,3.00955 0.91919,4.24625 3.71884,3.8153 7.42148,7.64642 11.61399,11.97799 m -75.6193,-29.45944 c -1.14926,1.49671 0.0826,2.06906 1.08933,2.60053 7.1897,3.79577 12.56314,9.5701 17.84051,15.60965 3.06677,3.50964 5.61414,7.67636 10.72299,11.14721 1.32209,-1.84317 2.3104,-3.64404 3.68659,-5.07083 8.84408,-9.16934 8.9154,-9.18106 0.55334,-18.57751 -2.9028,-3.26187 -6.29086,-6.1449 -10.92138,-6.2265 -7.45694,-0.13144 -14.92017,0.0926 -22.97138,0.51745 m 211.66855,16.69131 c 5.1695,-5.88135 10.9123,-11.21234 17.72632,-17.25254 -8.59436,0 -15.72155,-0.13439 -22.8396,0.0613 -3.17425,0.0872 -6.24749,1.14573 -8.5628,3.51053 -2.90442,2.96655 -5.66236,6.07608 -8.49945,9.10904 -1.19794,1.2807 -2.49384,2.98764 -1.0069,4.34043 4.32367,3.93365 7.61346,8.99667 12.62573,12.48406 3.78327,-4.06057 6.13452,-8.58114 10.5567,-12.25277 z"
     id="path1" /><path
     fill="#000000"
     opacity="1"
     stroke="none"
     d="m 344.46625,605.47711 c 6.61746,-7.50629 12.99374,-14.75329 19.38858,-21.98382 2.21902,-2.5091 4.73916,-2.44977 6.96478,-0.23285 5.45114,5.42999 9.98203,10.80932 9.7294,19.71478 -0.65195,22.98022 -0.11008,45.99237 -0.26587,68.99023 -0.0402,5.93903 1.42328,10.78937 6.52219,14.22535 2.47143,1.6654 3.36575,4.02594 2.51202,6.96643 -0.90268,3.10907 -3.37164,4.04254 -6.15991,4.07379 -8.66486,0.097 -17.33246,0.0913 -25.99716,-0.0184 -2.93781,-0.0372 -5.73017,-0.96832 -7.00168,-3.9306 -1.28143,-2.98547 -0.0301,-5.46814 2.15127,-7.63647 1.45154,-1.44287 2.3971,-3.17212 2.39576,-5.32123 -0.01,-15.82007 -0.005,-31.64014 -0.005,-48.48938 -6.76676,7.68018 -13.02298,14.60339 -19.06882,21.70563 -3.9823,4.67816 -8.05734,9.2771 -11.41458,14.49115 -3.52728,5.47809 -5.89224,5.50781 -9.64667,0.0458 -8.13788,-11.83886 -18.2091,-22.08087 -27.06546,-33.31976 -0.60077,-0.76245 -1.18414,-1.63776 -2.4263,-1.59198 -1.23907,0.99194 -0.74728,2.42798 -0.75738,3.67615 -0.1037,12.8161 -0.0855,25.6336 -0.25986,38.44848 -0.059,4.33631 0.45788,8.20118 4.10388,11.20276 1.79349,1.4765 3.2063,3.49768 2.22263,6.15442 -1.0492,2.83368 -3.41489,4.38068 -6.12387,4.44403 -9.49097,0.22205 -18.9925,0.19873 -28.48502,0.0135 -2.60165,-0.0508 -4.68138,-1.56567 -5.47336,-4.36926 -0.75162,-2.66071 0.37854,-4.92499 2.33782,-6.10907 5.9441,-3.59204 6.32371,-8.98987 6.2556,-15.12061 -0.24631,-22.16333 -0.22373,-44.33062 -0.13492,-66.49579 0.0207,-5.18164 -0.96811,-9.45495 -5.85346,-12.27191 -2.88151,-1.66156 -4.05198,-4.56305 -2.88524,-7.76678 1.13964,-3.12927 3.6354,-4.55542 7.08751,-4.3537 1.4657,0.0856 2.95893,-0.3313 4.44172,-0.50201 6.0429,-0.69593 11.35363,0.15051 15.72094,5.21307 13.26172,15.37317 26.98615,30.34698 39.75339,46.14685 0.6279,0.77698 1.10226,1.68384 2.80615,1.97955 7.99216,-9.07818 16.19473,-18.39532 24.6312,-27.97827 z"
     id="path2"
     style="display:none" /><path
     fill="#000000"
     opacity="1"
     stroke="none"
     d="m 593.54218,595.51599 c 14.47882,17.6911 10.74664,44.90674 -8.45002,55.27759 -1.44897,0.78271 -3.31701,1.61108 -2.12488,3.74762 5.34559,9.58008 10.60175,19.27405 18.94465,26.68268 2.32147,2.06152 5.21923,3.56592 8.03668,4.95166 2.88971,1.42126 3.87414,3.52185 3.20923,6.47906 -0.61585,2.73841 -2.47876,4.50989 -5.24311,4.54297 -9.9895,0.11951 -19.98816,0.23212 -29.96942,-0.0878 -4.13556,-0.13251 -6.93377,-4.22656 -6.07361,-8.7146 0.59467,-3.10321 -0.16156,-5.34479 -1.77716,-7.84064 -4.24755,-6.56158 -8.4226,-13.18347 -12.28717,-19.97442 -2.17822,-3.8277 -5.22326,-4.64661 -9.18939,-4.32666 -2.27148,0.18329 -3.32544,1.07232 -3.3092,3.37011 0.0481,6.82795 0.0808,13.65656 0.0294,20.48432 -0.0236,3.12183 2.26007,4.7348 4.15228,6.49829 2.23669,2.08447 2.95172,4.24207 1.70801,7.10382 -1.15802,2.66449 -3.16028,3.62097 -5.94117,3.60565 -8.82653,-0.0486 -17.65356,-0.0401 -26.48028,-0.008 -3.13428,0.0114 -5.67639,-1.11298 -6.75641,-4.10895 -0.9888,-2.74292 -0.17349,-5.35779 2.21185,-7.13312 4.50891,-3.35571 5.40735,-8.10767 5.40991,-13.24341 0.0111,-22.31714 0.0818,-44.6347 -0.0549,-66.95099 -0.0316,-5.16583 -0.62078,-10.2984 -5.8172,-13.51349 -2.66827,-1.65094 -2.51202,-4.63427 -1.73413,-7.24414 0.69306,-2.32525 2.44171,-4.3645 4.9989,-4.28198 18.22639,0.58893 36.5445,-3.1734 54.68012,0.90241 8.70209,1.95581 15.87506,6.64019 21.82697,13.78216 M 545.321,627.22682 c 0.17376,2.34357 -0.80713,5.39258 3.24017,5.3957 5.16296,0.004 10.3479,0.28167 15.48315,-0.10022 6.19605,-0.4607 11.79853,-7.04303 11.58679,-12.9798 -0.24298,-6.81262 -5.6267,-12.04047 -12.66833,-12.19275 -4.32886,-0.0937 -8.66815,0.10297 -12.98908,-0.10907 -3.41467,-0.16766 -4.8482,1.01361 -4.69061,4.56354 0.21405,4.82055 0.0443,9.65814 0.0379,15.4226 z"
     id="path3"
     style="display:none" /><path
     fill="#000000"
     opacity="1"
     stroke="none"
     d="m 681.02057,619.00696 c -13.65985,18.21326 -5.72559,40.34063 10.52917,48.41626 11.65869,5.79223 24.55622,3.88952 34.08124,-5.01129 4.32178,-4.03852 7.443,-3.28791 9.71478,2.3283 1.74494,4.31403 3.19995,8.77918 5.32911,12.89508 2.46637,4.76783 1.05981,8.02094 -3.16718,10.39173 -15.3797,8.62591 -31.52643,12.41858 -48.82855,6.70172 -27.94727,-9.23395 -43.5387,-32.30072 -41.97174,-61.73468 1.16583,-21.89899 18.14197,-43.47247 38.94732,-50.44171 15.24964,-5.10828 30.00208,-4.70038 44.5918,1.91217 2.04059,0.92486 4.1438,1.06415 6.25897,1.46441 4.6297,0.87604 7.99622,4.92402 5.05158,9.92005 -2.92938,4.97003 -6.08234,9.85815 -7.83075,15.54779 -1.31415,4.27631 -5.40674,5.01721 -8.80383,2.29968 -14.50824,-11.60534 -32.23737,-9.5639 -43.90192,5.31049 z"
     id="path4"
     style="display:none" /><path
     fill="#000000"
     opacity="1"
     stroke="none"
     d="m 461.31506,627 c 0.0121,13.49469 0.138,26.49103 -0.0378,39.48315 -0.0518,3.82752 0.97885,5.58155 5.06153,5.23554 3.30801,-0.28034 6.66986,-0.21967 9.98821,-0.006 3.72208,0.23974 6.8201,-0.75794 9.56531,-3.31751 1.98212,-1.84808 4.27866,-3.39471 7.19016,-1.92187 2.78876,1.41088 3.15515,4.14361 3.20874,6.81341 0.11023,5.4953 0.12457,10.99726 -0.0142,16.49164 -0.12656,5.00989 -2.36258,7.42145 -7.39823,7.46124 -16.15884,0.12787 -32.31942,0.0634 -48.47918,0.0187 -2.99103,-0.008 -5.13382,-0.79059 -3.14057,-4.48547 2.26557,-4.19977 -1.92618,-4.83564 -4.37048,-6.79022 4.21426,-6.43384 2.66476,-13.52851 2.71085,-20.38965 0.13986,-20.82392 0.012,-41.64948 0.0817,-62.47413 0.0147,-4.40368 -0.75327,-8.16156 -4.86923,-10.72613 -2.61716,-1.63068 -3.8273,-4.24029 -2.63974,-7.35168 1.1152,-2.92188 3.25937,-4.42115 6.54291,-4.39142 8.81362,0.0798 17.62841,0.0232 26.44274,0.0318 3.39316,0.003 6.47144,0.98169 7.73389,4.35797 1.31134,3.50702 -0.54721,6.17639 -3.47461,7.98956 -3.23083,2.0011 -4.17505,4.8877 -4.13531,8.48169 0.0921,8.32892 0.0309,16.65949 0.0334,25.48938 z"
     id="path5"
     style="display:none" /><path
     fill="#000000"
     opacity="1"
     stroke="none"
     d="m 747.75659,399.07983 c 2.68305,-13.4104 8.48499,-18.5523 20.3053,-18.41394 7.37823,0.0864 14.10168,5.15461 16.74524,12.62281 2.56891,7.25732 0.45978,15.71951 -4.96814,20.43643 -5.83185,5.0679 -12.20221,7.18747 -19.69708,4.0307 -8.08551,-3.40558 -11.72052,-9.81769 -12.38532,-18.676 z"
     id="path6" /><path
     fill="#000000"
     opacity="1"
     stroke="none"
     d="m 214.80106,412.09582 c -5.83214,-8.34384 -5.65004,-18.51547 0.23077,-25.10955 5.98392,-6.70978 15.22548,-8.49216 23.12015,-4.45911 7.17836,3.66721 11.38971,12.13699 9.95578,20.02301 -1.5143,8.32791 -9.64727,16.25403 -17.63837,16.61685 -6.1075,0.27732 -11.27081,-2.29519 -15.66833,-7.0712 z"
     id="path7" /><path
     fill="#000000"
     opacity="1"
     stroke="none"
     d="m 805.70996,646.39758 c -2.45599,-0.0319 -4.45087,-0.0312 -6.44513,-0.068 -3.18701,-0.0587 -5.5711,-1.55835 -6.31793,-4.62543 -0.7915,-3.25067 0.79407,-5.79144 3.55292,-7.56775 1.89825,-1.22229 4.02295,-1.35949 6.22491,-1.3601 19.78052,-0.006 39.5611,-0.043 59.34149,-0.11554 2.72058,-0.01 5.37043,0.13519 7.46558,2.08697 1.90576,1.77527 3.19366,3.98145 2.4013,6.65527 -0.73071,2.46576 -2.12219,4.85102 -5.04022,4.8407 -20.24127,-0.0723 -40.47711,2.18347 -61.18292,0.15387 z"
     id="path8"
     style="display:none" /><path
     fill="#000000"
     opacity="1"
     stroke="none"
     d="m 687.10113,544.30835 c -3.28991,-0.1344 -6.11657,0.28656 -8.87048,-0.82752 -2.39252,-0.96783 -4.03534,-2.64819 -4.28436,-5.04895 -0.27643,-2.66479 1.20801,-4.71697 3.63855,-6.02526 5.03961,-2.71259 10.46838,-1.65338 15.70862,-1.40149 18.12433,0.87091 36.23327,1.17657 54.34997,-0.0715 2.48767,-0.17138 4.9577,-0.18768 7.37903,0.78815 3.13312,1.26257 5.20325,3.43634 4.65698,6.79077 -0.55664,3.41791 -3.01452,5.47229 -6.62066,5.75647 -1.32544,0.10449 -2.66419,0.0533 -3.99683,0.0531 -20.49249,-0.003 -40.98499,-0.008 -61.96082,-0.0137 z"
     id="path9" /><path
     fill="#000000"
     opacity="1"
     stroke="none"
     d="m 139.22458,646.36975 c -4.50614,0.17841 -8.05774,-0.72967 -8.39504,-5.48108 -0.32925,-4.63849 2.80382,-6.7915 6.91765,-7.72455 1.12178,-0.25445 2.30091,-0.35479 3.4541,-0.35742 18.45108,-0.0425 36.90229,-0.0911 55.35332,-0.0586 5.59633,0.01 8.39868,2.06665 8.75632,6.06067 0.45318,5.06109 -1.85884,7.20929 -7.39028,7.58667 -19.41488,1.3244 -38.81999,0.58337 -58.69607,-0.0256 z"
     id="path10"
     style="display:none" /><path
     fill="#000000"
     opacity="1"
     stroke="none"
     d="m 271.00046,530.90247 c 13.49911,-0.009 26.49862,-0.0606 39.49743,0.0143 2.47446,0.0143 4.9715,0.39368 7.41275,0.84833 3.44849,0.64221 5.24222,3.0943 5.16587,6.38769 -0.0788,3.39832 -2.36075,5.38355 -5.67209,5.99939 -1.13385,0.21088 -2.32462,0.15351 -3.48944,0.15405 -19.8324,0.009 -39.66483,0.0225 -59.49716,3.1e-4 -5.8695,-0.007 -8.50127,-1.86279 -8.68459,-5.95496 -0.19588,-4.37219 3.09448,-7.27453 8.76918,-7.42242 5.32935,-0.13886 10.66522,-0.0274 16.49805,-0.0267 z"
     id="path11" /><path
     fill="#000000"
     opacity="1"
     stroke="none"
     d="m 384.22278,526.38391 c -9.17816,-5.12573 -12.59778,-12.72101 -9.93164,-21.35657 2.41147,-7.81085 9.99414,-12.86908 18.4444,-12.3038 8.57302,0.57349 15.65768,8.65894 15.58691,17.7887 -0.0686,8.84579 -7.24597,16.51895 -15.8472,16.7944 -2.63416,0.0844 -5.34714,0.46008 -8.25247,-0.92273 z"
     id="path12" /><path
     fill="#000000"
     opacity="1"
     stroke="none"
     d="m 620.33801,502.02872 c 4.34802,9.67251 1.37708,19.36416 -6.93634,23.4573 -8.4848,4.17755 -18.77173,0.90143 -23.19458,-7.3869 -4.64837,-8.71097 -2.09167,-17.89129 6.33228,-22.73685 8.68884,-4.99792 18.11639,-2.48672 23.79864,6.66645 z"
     id="path13" /><path
     fill="#000000"
     opacity="1"
     stroke="none"
     d="m 743.92944,166.1528 c -7.38836,1.52963 -12.35949,-2.50951 -10.55816,-8.24211 1.06439,-3.38751 3.07489,-6.05997 6.99872,-6.10608 3.46765,-0.0408 6.28399,1.7166 7.47424,4.89649 1.44726,3.86671 0.23761,7.20587 -3.9148,9.4517 z"
     id="path14" /><path
     fill="#000000"
     opacity="1"
     stroke="none"
     d="m 260.91717,164.83243 c -3.70489,2.66638 -7.03971,2.5706 -10.19718,-0.18695 -2.39513,-2.09177 -2.89782,-4.74991 -1.83724,-7.6565 1.0383,-2.84559 3.09604,-4.78364 6.12943,-5.11409 3.0213,-0.32913 5.51611,1.09683 7.17654,3.58258 2.15143,3.22084 1.23706,6.26979 -1.27155,9.37496 z"
     id="path15" /><path
     fill="#000000"
     opacity="1"
     stroke="none"
     d="m 773.62122,645.98071 c -5.04017,-4.33886 -4.45386,-9.96576 0.83032,-12.34515 2.68445,-1.20874 5.24841,-1.00031 7.45025,0.79864 2.06275,1.68531 2.76532,4.08136 2.01313,6.7049 -0.8526,2.97369 -2.79822,4.84143 -5.95825,5.12219 -1.30134,0.1156 -2.63025,-0.0792 -4.33545,-0.28058 z"
     id="path16"
     style="display:none" /><path
     fill="#000000"
     opacity="1"
     stroke="none"
     d="m 228.20715,642.19885 c -2.03433,4.17926 -5.38461,4.7096 -8.9898,3.82965 -2.56955,-0.62713 -4.21717,-2.55243 -4.46601,-5.34295 -0.30087,-3.3739 1.30078,-5.66114 4.20465,-7.2063 2.5604,-1.36255 4.91234,-0.5506 6.98123,0.90393 2.55921,1.79901 3.25654,4.43378 2.26993,7.81567 z"
     id="path17"
     style="display:none" /></g>&#10;</svg>
